<svg xmlns="http://www.w3.org/2000/svg" viewBox="0 0 193.02 256.81"><defs><style>.cls-1{fill:#e0e0e0;}.cls-1,.cls-2{stroke:#000;stroke-miterlimit:10;stroke-width:3px;}.cls-2{fill:#fff;}</style></defs><g id="Ebene_2" data-name="Ebene 2"><g id="Ebene_1-2" data-name="Ebene 1"><rect class="cls-1" x="76.38" y="25.24" width="113.75" height="159.43" rx="36.22" transform="matrix(1, 0.03, -0.03, 1, 3.43, -4.21)"/><rect class="cls-1" x="67.98" y="35.74" width="113.75" height="159.43" rx="36.22" transform="matrix(1, 0.03, -0.03, 1, 3.76, -3.94)"/><rect class="cls-1" x="60.28" y="43.44" width="113.75" height="159.43" rx="36.22" transform="translate(4 -3.69) rotate(1.84)"/><rect class="cls-1" x="51.88" y="51.14" width="113.75" height="159.43" rx="36.22" transform="matrix(1, 0.03, -0.03, 1, 4.25, -3.42)"/><rect class="cls-2" x="44.18" y="2.14" width="113.75" height="159.43" rx="36.22" transform="matrix(1, 0.03, -0.03, 1, 2.67, -3.19)"/><rect class="cls-1" x="32.98" y="72.84" width="113.75" height="159.43" rx="36.22" transform="matrix(1, 0.03, -0.03, 1, 4.93, -2.8)"/><rect class="cls-1" x="24.58" y="79.14" width="113.75" height="159.43" rx="36.22" transform="translate(5.13 -2.53) rotate(1.84)"/><rect class="cls-1" x="14.08" y="87.54" width="113.75" height="159.43" rx="36.22" transform="matrix(1, 0.03, -0.03, 1, 5.39, -2.19)"/><rect class="cls-1" x="2.88" y="95.24" width="113.75" height="159.43" rx="36.22" transform="matrix(1, 0.03, -0.03, 1, 5.63, -1.82)"/></g></g></svg>