<svg xmlns="http://www.w3.org/2000/svg" viewBox="0 0 200.5 227.2"><defs><style>.cls-1,.cls-3{fill:#fff;}.cls-1,.cls-2{stroke:#000;stroke-miterlimit:10;stroke-width:4px;}.cls-2{fill:#e0e0e0;}.cls-4{fill:#1d1d1d;}</style></defs><g id="Ebene_2" data-name="Ebene 2"><g id="Ebene_1-2" data-name="Ebene 1"><line class="cls-1" x1="198.5" y1="39.2" x2="2" y2="39.2"/><polyline class="cls-2" points="2 39.2 52 2 148.5 2 198.5 39.2"/><line class="cls-1" x1="198.5" y1="42.86" x2="2" y2="42.86"/><rect class="cls-1" x="2" y="40" width="196.5" height="185.2"/><line class="cls-3" x1="39.38" y1="137.2" x2="163.38" y2="137.2"/><path class="cls-4" d="M163.23,120.09c-11.6,3.52-23.11,5.08-35,1.84-11.42-3.12-22.09-6.19-33.58-9.89-18.79-6.08-36.53,5.5-54.89,3.09-.21,0-.4.41-.4,1s.16,1,.39,1c7.61,1.11,15.1,2.22,22.81.33,10.8-2.66,21.1-4,31.89-1.58,11.45,2.63,22.24,5.34,33.72,8.72,8,2.39,15.61,1,23.56-.7a60.29,60.29,0,0,0,11.57-3.27.43.43,0,0,0,.06-.32C163.35,120.11,163.29,120.05,163.23,120.09Z"/><path class="cls-4" d="M163.23,132.9c-11.6,3.51-23.11,5.07-35,1.83-11.42-3.12-22.09-6.19-33.58-9.89-18.79-6.08-36.53,5.5-54.89,3.09-.21,0-.4.41-.4,1s.16,1,.39,1c7.61,1.11,15.1,2.23,22.81.33,10.8-2.66,21.1-4,31.89-1.58,11.45,2.62,22.24,5.34,33.72,8.72,8,2.39,15.61,1,23.56-.7a60.29,60.29,0,0,0,11.57-3.27.44.44,0,0,0,.06-.32C163.35,132.91,163.29,132.85,163.23,132.9Z"/><path class="cls-4" d="M163.23,145.7c-11.6,3.51-23.11,5.07-35,1.83-11.42-3.12-22.09-6.19-33.58-9.89-18.79-6.08-36.53,5.51-54.89,3.09-.21,0-.4.41-.4,1s.16.95.39,1c7.61,1.12,15.1,2.22,22.81.33,10.8-2.66,21.1-4.05,31.89-1.58,11.45,2.63,22.24,5.34,33.72,8.72,8,2.39,15.61,1,23.56-.7a61,61,0,0,0,11.57-3.26.48.48,0,0,0,.06-.33C163.35,145.71,163.29,145.65,163.23,145.7Z"/><path class="cls-4" d="M163.23,158.49c-11.6,3.52-23.11,5.08-35,1.84-11.42-3.12-22.09-6.2-33.58-9.89-18.79-6.08-36.53,5.5-54.89,3.09-.21,0-.4.41-.4,1s.16.95.39,1c7.61,1.12,15.1,2.23,22.81.33,10.8-2.66,21.1-4,31.89-1.58,11.45,2.63,22.24,5.34,33.72,8.72,8,2.38,15.61,1,23.56-.7A61,61,0,0,0,163.32,159a.47.47,0,0,0,.06-.33C163.35,158.51,163.29,158.46,163.23,158.49Z"/><line class="cls-3" x1="57.38" y1="20.2" x2="148.88" y2="24.7"/><path class="cls-4" d="M79.12,23.84c0-.1-.28-.22.19-.24,1.49,0,2.67.37,4.16.35l.11-.16c1.15.13,2.34.28,3.56.41q3.38.14,6.73.22c-.06-.07-.08-.12.14-.13.93,0,2.21.12,3.54.2h.59a.35.35,0,0,0,.22-.11c.6,0,1.14.07,1.63.11,6.55,0,13.21,0,20.42-.07,1.53-.07,3.06-.15,4.53-.14,2.17,0,4.94.28,7.05.41-.3-.59,4.88-.62,3.88-1.26a17.71,17.71,0,0,0,3.64.05c.36-.47,1.47-1,5.23-1.09,1.47,0,3.71.32,4.24.25.82-.12-1.89-.44-1.07-.56-10.89-.71-21.4-1-32.37-1.56-3.75.07-29-1.06-35.42-1.49l-.59,0c-3.53-.2-7.82-.37-10.82-.3-1.38.07-2.78.17-4.18.26.64.12,1.24.25,1.75.37a24.85,24.85,0,0,0-3.37-.09c-3,.1-1.33.47-.19.92.82.21-.32.42,1,.66l-2.35-.14c-.12.16,2.9.06,2.23.3-.9-.11-1.92-.06-2.86-.12.32.24,3.25.25,3.1.46-.51,0-2.63-.43-2.82-.17a7.17,7.17,0,0,0,1.37.14c-2.9-.06-4.51.12-1.88.55-.92-.06-2.21-.24-3.18-.25h0c.49,0,1.32.13,1.77.15l-1.66-.09.29.13c.41.05.82.1,1.25.12l-1.1-.06c.27.1.58.2.92.3,1.3.24,2.54.56,3.24.6C67.71,23.17,73.43,23.54,79.12,23.84Z"/></g></g></svg>