<svg xmlns="http://www.w3.org/2000/svg" viewBox="0 0 182.33 246.64"><defs><style>.cls-1{fill:#1d1d1d;}.cls-2{fill:#fff;}.cls-2,.cls-3,.cls-4{stroke:#000;stroke-miterlimit:10;stroke-width:4px;}.cls-3{fill:none;}.cls-4{fill:#e0e0e0;}</style></defs><g id="Ebene_2" data-name="Ebene 2"><g id="Ebene_1-2" data-name="Ebene 1"><path class="cls-1" d="M17.25,235.87c0-.2-.24-.38.1-.51,1.09-.3,2,.43,3.12.19l.08-.32c.86.11,1.78.39,2.69.57.42,0,.85,0,1.28,0l1.28.09,2.58.16c0-.13,0-.24.15-.26a23.1,23.1,0,0,1,2.71.53l.46,0a.42.42,0,0,0,.22-.22,10,10,0,0,1,1.26.33,134.52,134.52,0,0,1,16.46,2.22,24.68,24.68,0,0,1,3.72.54,42.65,42.65,0,0,1,5.32,2.25c.2-1.18,4.34,0,4.06-1.35,1.06.52,2.64,1.33,2.87,1.09.68-.74,2-1.39,5.17-.31,1.21.51,2.66,1.88,3.28,2.07.18,0,.22,0,.18-.18a.86.86,0,0,0-.17-.26l-.21-.3c-.3-.39-.57-.75-.17-.7A72.7,72.7,0,0,0,61.07,235c-4.31-1.75-8.7-3.24-13.22-4.61-1.63-.21-7.62-1.81-14-2.94-1.64-.24-3.29-.55-4.92-.75s-3.21-.39-4.7-.45c-3-.2-5.49-.13-7-.13l-.54.06A24.94,24.94,0,0,0,7,228.49a16.06,16.06,0,0,0-1.69,1.08,18.42,18.42,0,0,0-1.61,1.22,9,9,0,0,1,1.72-.14,11.94,11.94,0,0,0-1.68.74,3.17,3.17,0,0,0-1,.72c-1.09.89-1.17,1.31-.86,1.46a9.7,9.7,0,0,0,1.65.23c.78,0,.21.85,1.31.68-.68.32-1,.52-1.67.89.08.3,2-1.3,1.74-.56A8.12,8.12,0,0,0,2.92,236c.42.19,2.27-1.16,2.39-.69-.3.23-2.09.47-1.9,1,0,.1.64-.26,1-.42a4,4,0,0,0-1.58,1.61c-.09.37.21.45,1.12.18l-.92.53a2.37,2.37,0,0,0-.66.52h0s0,0,0,0l.09-.07.23-.15.46-.3c-.27.2-.58.46-.72.59,0,.07.17.06.24.08a3.93,3.93,0,0,0,.63-.37c-.18.13-.36.28-.5.4a4.35,4.35,0,0,0,.73,0c.85-.22,1.77-.23,2.18-.43a24.46,24.46,0,0,1,5.47-1.86c1-.19,2-.41,3-.51S16.21,236,17.25,235.87Z" transform="translate(-1.64)"/><path class="cls-2" d="M110.14,196.92s-30.51-9.34-29.72-11.38L151.87,2.59l29.51,11.5Z" transform="translate(-1.64)"/><line class="cls-3" x1="79.2" y1="184.89" x2="108.45" y2="197.04"/><path class="cls-4" d="M110,197.5,75.56,240.24l4.86-54c.24-.33,29.56,12,29.56,12" transform="translate(-1.64)"/><polygon points="90.75 220.68 73.61 242.16 76.13 213.95 90.75 220.68"/></g></g></svg>