<svg xmlns="http://www.w3.org/2000/svg" viewBox="0 0 342 342"><defs><style>.cls-1{fill:#fff;}.cls-2{fill:#93a5d1;}.cls-3{fill:#cc9aa2;}</style></defs><g id="Ebene_2" data-name="Ebene 2"><g id="Ebene_1-2" data-name="Ebene 1"><circle class="cls-1" cx="171" cy="171" r="171"/><path class="cls-2" d="M248.53,36.5H144.47A22.47,22.47,0,0,0,122,59V71.5h89.53A22.47,22.47,0,0,1,234,94V256.5h14.53A22.47,22.47,0,0,0,271,234V59A22.47,22.47,0,0,0,248.53,36.5Z"/><path class="cls-3" d="M197.53,85.5H93.47A22.47,22.47,0,0,0,71,108V283A22.47,22.47,0,0,0,93.47,305.5H197.53A22.47,22.47,0,0,0,220,283V108A22.47,22.47,0,0,0,197.53,85.5Z"/></g></g></svg>